# xmcd CD database file
#
# Track frame offsets:
#	150
#	12132
#	30602
#	50855
#	68957
#	88410
#	104925
#	121867
#	136150
#	155710
#	169035
#	186865
#	202915
#	224572
#	248857
#	271560
#
# Disc length: 4035 seconds
#
# Revision: 4
# Processed by: cddbd v1.5.1PL2 Copyright (c) Steve Scherf et al.
# Submitted via: CDex 1.51
#
DISCID=ec0fc110
DTITLE=Jimmy Cliff - The Best
DYEAR=1998
DGENRE=Reggae
TTITLE0=Many rivers to cross
TTITLE1=Reggae night
TTITLE2=We all are one
TTITLE3=Hot shot
TTITLE4=Reggae down babylon
TTITLE5=Reggae street
TTITLE6=Special
TTITLE7=I can see clearly now
TTITLE8=Love me Love me
TTITLE9=Rub a dub partner
TTITLE10=Rock children
TTITLE11=Brown eyes
TTITLE12=Sunshine in the music
TTITLE13=Hanging fire
TTITLE14=Girls and cars
TTITLE15=The Jimmy Cliff Reggamix
EXTD=YEAR: 1998
EXTT0=
EXTT1=
EXTT2=
EXTT3=
EXTT4=
EXTT5=
EXTT6=
EXTT7=
EXTT8=
EXTT9=
EXTT10=
EXTT11=
EXTT12=
EXTT13=
EXTT14=
EXTT15=
PLAYORDER=
